<mxfile host="app.diagrams.net" modified="2023-08-24T18:32:16.385Z" agent="Mozilla/5.0 (Windows NT 10.0; Win64; x64; rv:109.0) Gecko/20100101 Firefox/116.0" etag="RiFpM_PRacJhhLtjt4U2" version="21.6.8">
  <diagram name="Page-1" id="WvLwTFml9O1Q0iPOb5Id">
    <mxGraphModel dx="2336" dy="1974" grid="1" gridSize="10" guides="1" tooltips="1" connect="1" arrows="1" fold="1" page="1" pageScale="1" pageWidth="827" pageHeight="1169" math="0" shadow="0">
      <root>
        <mxCell id="0" />
        <mxCell id="1" parent="0" />
        <mxCell id="K_RhzhosBmSExs1BeJJp-21" value="" style="group" vertex="1" connectable="0" parent="1">
          <mxGeometry x="-130" y="30" width="120" height="135" as="geometry" />
        </mxCell>
        <mxCell id="K_RhzhosBmSExs1BeJJp-18" value="" style="image;points=[];aspect=fixed;html=1;align=center;shadow=0;dashed=0;image=img/lib/allied_telesis/computer_and_terminals/Server_Desktop.svg;" vertex="1" parent="K_RhzhosBmSExs1BeJJp-21">
          <mxGeometry width="71" height="90" as="geometry" />
        </mxCell>
        <mxCell id="K_RhzhosBmSExs1BeJJp-39" value=".11" style="text;html=1;align=center;verticalAlign=middle;resizable=0;points=[];autosize=1;strokeColor=none;fillColor=none;" vertex="1" parent="K_RhzhosBmSExs1BeJJp-21">
          <mxGeometry x="40" y="70" width="40" height="30" as="geometry" />
        </mxCell>
        <mxCell id="K_RhzhosBmSExs1BeJJp-22" value="" style="image;points=[];aspect=fixed;html=1;align=center;shadow=0;dashed=0;image=img/lib/allied_telesis/storage/Datacenter_Server_Rack.svg;" vertex="1" parent="1">
          <mxGeometry x="-360" y="-13.800000000000013" width="88.2" height="178.8" as="geometry" />
        </mxCell>
        <mxCell id="K_RhzhosBmSExs1BeJJp-24" value="" style="endArrow=none;html=1;rounded=0;shape=link;fillColor=#60a917;strokeColor=#2D7600;" edge="1" parent="1" source="K_RhzhosBmSExs1BeJJp-22" target="K_RhzhosBmSExs1BeJJp-18">
          <mxGeometry width="50" height="50" relative="1" as="geometry">
            <mxPoint x="10" y="390" as="sourcePoint" />
            <mxPoint x="60" y="340" as="targetPoint" />
            <Array as="points" />
          </mxGeometry>
        </mxCell>
        <mxCell id="K_RhzhosBmSExs1BeJJp-27" value="" style="endArrow=none;html=1;rounded=0;shape=link;fillColor=#0050ef;strokeColor=#001DBC;exitX=1.107;exitY=0.565;exitDx=0;exitDy=0;exitPerimeter=0;" edge="1" parent="1" source="K_RhzhosBmSExs1BeJJp-26" target="K_RhzhosBmSExs1BeJJp-18">
          <mxGeometry width="50" height="50" relative="1" as="geometry">
            <mxPoint x="-90" y="270" as="sourcePoint" />
            <mxPoint x="60" y="350" as="targetPoint" />
            <Array as="points" />
          </mxGeometry>
        </mxCell>
        <mxCell id="K_RhzhosBmSExs1BeJJp-20" value="Truenas&lt;br&gt;&lt;div&gt;&lt;br&gt;&lt;/div&gt;" style="text;html=1;align=center;verticalAlign=middle;resizable=0;points=[];autosize=1;strokeColor=none;fillColor=none;" vertex="1" parent="1">
          <mxGeometry x="-123.75" width="70" height="40" as="geometry" />
        </mxCell>
        <mxCell id="K_RhzhosBmSExs1BeJJp-30" value="" style="sketch=0;outlineConnect=0;fontColor=#232F3E;gradientColor=none;fillColor=#4D27AA;strokeColor=none;dashed=0;verticalLabelPosition=bottom;verticalAlign=top;align=center;html=1;fontSize=12;fontStyle=0;aspect=fixed;pointerEvents=1;shape=mxgraph.aws4.customer_gateway;" vertex="1" parent="1">
          <mxGeometry x="-560" y="246" width="68" height="68" as="geometry" />
        </mxCell>
        <mxCell id="K_RhzhosBmSExs1BeJJp-31" value="" style="endArrow=none;html=1;rounded=0;shape=link;fillColor=#0050ef;strokeColor=#001DBC;exitX=0.932;exitY=0.243;exitDx=0;exitDy=0;exitPerimeter=0;" edge="1" parent="1" source="K_RhzhosBmSExs1BeJJp-26" target="K_RhzhosBmSExs1BeJJp-22">
          <mxGeometry width="50" height="50" relative="1" as="geometry">
            <mxPoint x="-322" y="267" as="sourcePoint" />
            <mxPoint x="-108" y="130" as="targetPoint" />
            <Array as="points" />
          </mxGeometry>
        </mxCell>
        <mxCell id="K_RhzhosBmSExs1BeJJp-32" value="Proxmox" style="text;html=1;align=center;verticalAlign=middle;resizable=0;points=[];autosize=1;strokeColor=none;fillColor=none;" vertex="1" parent="1">
          <mxGeometry x="-350.9" y="-50" width="70" height="30" as="geometry" />
        </mxCell>
        <mxCell id="K_RhzhosBmSExs1BeJJp-26" value="" style="shape=cylinder3;whiteSpace=wrap;html=1;boundedLbl=1;backgroundOutline=1;size=15;rotation=-90;fillColor=#1ba1e2;fontColor=#ffffff;strokeColor=#006EAF;" vertex="1" parent="1">
          <mxGeometry x="-153.75" y="-66.25" width="30" height="692.5" as="geometry" />
        </mxCell>
        <mxCell id="K_RhzhosBmSExs1BeJJp-28" value="Administration network" style="text;html=1;align=center;verticalAlign=middle;resizable=0;points=[];autosize=1;strokeColor=none;fillColor=none;" vertex="1" parent="1">
          <mxGeometry x="-267.5" y="265" width="150" height="30" as="geometry" />
        </mxCell>
        <mxCell id="K_RhzhosBmSExs1BeJJp-33" value="Router" style="text;html=1;align=center;verticalAlign=middle;resizable=0;points=[];autosize=1;strokeColor=none;fillColor=none;" vertex="1" parent="1">
          <mxGeometry x="-556" y="216" width="60" height="30" as="geometry" />
        </mxCell>
        <mxCell id="K_RhzhosBmSExs1BeJJp-2" value="" style="rounded=0;whiteSpace=wrap;html=1;fillColor=#eeeeee;strokeColor=#36393d;" vertex="1" parent="1">
          <mxGeometry x="230" y="120" width="380" height="430" as="geometry" />
        </mxCell>
        <mxCell id="K_RhzhosBmSExs1BeJJp-4" value="App zone" style="text;html=1;strokeColor=none;fillColor=none;align=center;verticalAlign=middle;whiteSpace=wrap;rounded=0;" vertex="1" parent="1">
          <mxGeometry x="230" y="120" width="60" height="30" as="geometry" />
        </mxCell>
        <mxCell id="K_RhzhosBmSExs1BeJJp-10" value="Worker node 2" style="whiteSpace=wrap;html=1;aspect=fixed;fillColor=#f8cecc;strokeColor=#b85450;" vertex="1" parent="1">
          <mxGeometry x="470" y="240" width="80" height="80" as="geometry" />
        </mxCell>
        <mxCell id="K_RhzhosBmSExs1BeJJp-11" value="Worker node 3" style="whiteSpace=wrap;html=1;aspect=fixed;fillColor=#f8cecc;strokeColor=#b85450;" vertex="1" parent="1">
          <mxGeometry x="470" y="340" width="80" height="80" as="geometry" />
        </mxCell>
        <mxCell id="K_RhzhosBmSExs1BeJJp-12" value="Server node" style="whiteSpace=wrap;html=1;aspect=fixed;fillColor=#f8cecc;strokeColor=#b85450;" vertex="1" parent="1">
          <mxGeometry x="470" y="440" width="80" height="80" as="geometry" />
        </mxCell>
        <mxCell id="K_RhzhosBmSExs1BeJJp-9" value="Worker node 1" style="whiteSpace=wrap;html=1;aspect=fixed;fillColor=#f8cecc;strokeColor=#b85450;" vertex="1" parent="1">
          <mxGeometry x="470" y="140" width="80" height="80" as="geometry" />
        </mxCell>
        <mxCell id="K_RhzhosBmSExs1BeJJp-6" value="Bastion" style="whiteSpace=wrap;html=1;aspect=fixed;fillColor=#f8cecc;strokeColor=#b85450;" vertex="1" parent="1">
          <mxGeometry x="190" y="240" width="80" height="80" as="geometry" />
        </mxCell>
        <mxCell id="K_RhzhosBmSExs1BeJJp-34" value="VLAN100" style="text;html=1;align=center;verticalAlign=middle;resizable=0;points=[];autosize=1;strokeColor=#666666;fillColor=#f5f5f5;fontColor=#333333;" vertex="1" parent="1">
          <mxGeometry x="300" y="38" width="70" height="30" as="geometry" />
        </mxCell>
        <mxCell id="K_RhzhosBmSExs1BeJJp-35" value="VLAN10" style="text;html=1;align=center;verticalAlign=middle;resizable=0;points=[];autosize=1;strokeColor=#82b366;fillColor=#d5e8d4;" vertex="1" parent="1">
          <mxGeometry x="-243.75" y="20" width="70" height="30" as="geometry" />
        </mxCell>
        <mxCell id="K_RhzhosBmSExs1BeJJp-37" value=".100" style="text;html=1;align=center;verticalAlign=middle;resizable=0;points=[];autosize=1;strokeColor=none;fillColor=none;" vertex="1" parent="1">
          <mxGeometry x="150" y="290" width="50" height="30" as="geometry" />
        </mxCell>
        <mxCell id="K_RhzhosBmSExs1BeJJp-38" value=".10" style="text;html=1;align=center;verticalAlign=middle;resizable=0;points=[];autosize=1;strokeColor=none;fillColor=none;" vertex="1" parent="1">
          <mxGeometry x="-311.8" y="150" width="40" height="30" as="geometry" />
        </mxCell>
        <mxCell id="K_RhzhosBmSExs1BeJJp-40" value="10.10.0.0/24" style="text;html=1;align=center;verticalAlign=middle;resizable=0;points=[];autosize=1;strokeColor=none;fillColor=none;" vertex="1" parent="1">
          <mxGeometry x="-243.75" y="50" width="90" height="30" as="geometry" />
        </mxCell>
        <mxCell id="K_RhzhosBmSExs1BeJJp-42" value=".10" style="text;html=1;align=center;verticalAlign=middle;resizable=0;points=[];autosize=1;strokeColor=none;fillColor=none;" vertex="1" parent="1">
          <mxGeometry x="-277.79999999999995" y="78" width="40" height="30" as="geometry" />
        </mxCell>
        <mxCell id="K_RhzhosBmSExs1BeJJp-43" value=".11" style="text;html=1;align=center;verticalAlign=middle;resizable=0;points=[];autosize=1;strokeColor=none;fillColor=none;" vertex="1" parent="1">
          <mxGeometry x="-165" y="78" width="40" height="30" as="geometry" />
        </mxCell>
        <mxCell id="K_RhzhosBmSExs1BeJJp-44" value=".11" style="text;html=1;align=center;verticalAlign=middle;resizable=0;points=[];autosize=1;strokeColor=none;fillColor=none;" vertex="1" parent="1">
          <mxGeometry x="-70" y="38" width="40" height="30" as="geometry" />
        </mxCell>
        <mxCell id="K_RhzhosBmSExs1BeJJp-45" value=".100" style="text;html=1;align=center;verticalAlign=middle;resizable=0;points=[];autosize=1;strokeColor=none;fillColor=none;" vertex="1" parent="1">
          <mxGeometry x="260" y="290" width="50" height="30" as="geometry" />
        </mxCell>
        <mxCell id="K_RhzhosBmSExs1BeJJp-46" value="10.0.0.0/24" style="text;html=1;align=center;verticalAlign=middle;resizable=0;points=[];autosize=1;strokeColor=none;fillColor=none;" vertex="1" parent="1">
          <mxGeometry x="-233.75" y="290" width="80" height="30" as="geometry" />
        </mxCell>
        <mxCell id="K_RhzhosBmSExs1BeJJp-47" value="10.100.0.0/24" style="text;html=1;align=center;verticalAlign=middle;resizable=0;points=[];autosize=1;strokeColor=none;fillColor=none;" vertex="1" parent="1">
          <mxGeometry x="90" y="48" width="100" height="30" as="geometry" />
        </mxCell>
        <mxCell id="K_RhzhosBmSExs1BeJJp-48" value=".201" style="text;html=1;align=center;verticalAlign=middle;resizable=0;points=[];autosize=1;strokeColor=none;fillColor=none;" vertex="1" parent="1">
          <mxGeometry x="420" y="150" width="50" height="30" as="geometry" />
        </mxCell>
        <mxCell id="K_RhzhosBmSExs1BeJJp-23" value="" style="endArrow=none;html=1;rounded=0;shape=link;exitX=0.5;exitY=0;exitDx=0;exitDy=0;fillColor=#f5f5f5;strokeColor=#FCFCFC;strokeWidth=3;exitPerimeter=0;" edge="1" parent="1" source="K_RhzhosBmSExs1BeJJp-49" target="K_RhzhosBmSExs1BeJJp-18">
          <mxGeometry width="50" height="50" relative="1" as="geometry">
            <mxPoint x="10" y="390" as="sourcePoint" />
            <mxPoint x="60" y="340" as="targetPoint" />
            <Array as="points">
              <mxPoint x="375" y="75" />
            </Array>
          </mxGeometry>
        </mxCell>
        <mxCell id="K_RhzhosBmSExs1BeJJp-49" value="" style="shape=cylinder3;whiteSpace=wrap;html=1;boundedLbl=1;backgroundOutline=1;size=15;rotation=0;fillColor=#f5f5f5;fontColor=#333333;strokeColor=#666666;" vertex="1" parent="1">
          <mxGeometry x="360" y="165" width="30" height="335" as="geometry" />
        </mxCell>
        <mxCell id="K_RhzhosBmSExs1BeJJp-50" value=".202" style="text;html=1;align=center;verticalAlign=middle;resizable=0;points=[];autosize=1;strokeColor=none;fillColor=none;" vertex="1" parent="1">
          <mxGeometry x="420" y="240" width="50" height="30" as="geometry" />
        </mxCell>
        <mxCell id="K_RhzhosBmSExs1BeJJp-51" value=".203" style="text;html=1;align=center;verticalAlign=middle;resizable=0;points=[];autosize=1;strokeColor=none;fillColor=none;" vertex="1" parent="1">
          <mxGeometry x="420" y="340" width="50" height="30" as="geometry" />
        </mxCell>
        <mxCell id="K_RhzhosBmSExs1BeJJp-52" value=".200" style="text;html=1;align=center;verticalAlign=middle;resizable=0;points=[];autosize=1;strokeColor=none;fillColor=none;" vertex="1" parent="1">
          <mxGeometry x="420" y="440" width="50" height="30" as="geometry" />
        </mxCell>
      </root>
    </mxGraphModel>
  </diagram>
</mxfile>
